# xmcd CD database file generated by Grip 3.1.8
# 
# Track frame offsets:
#       150
#       22221
#       45387
#       68813
#       95355
#       122522
#       145118
#       169967
#       192933
# 
# Disc length: 2943 seconds
# 
# Revision: 1
# Processed by: cddbd v1.5PL3 Copyright (c) Steve Scherf et al.
# Submitted via: Grip 3.1.8
# 
DISCID=780b7d09
DTITLE=Fekete sereg - Az első hadjárat
DYEAR=1999
DGENRE=Other
TTITLE0=Intro - Falkavezér
TTITLE1=Visszetérés
TTITLE2=Máglyák fényében
TTITLE3=Vérbosszú
TTITLE4=Fekete sereg
TTITLE5=Barbár horda
TTITLE6=Elhagyott hittel
TTITLE7=Hajszolt vad
TTITLE8=A könyv bezárul
EXTD=
EXTT0=
EXTT1=
EXTT2=
EXTT3=
EXTT4=
EXTT5=
EXTT6=
EXTT7=
EXTT8=
PLAYORDER=
